<?xml version="1.0" encoding="utf-8"?>
<!-- Generator: Adobe Illustrator 25.0.1, SVG Export Plug-In . SVG Version: 6.00 Build 0)  -->
<svg version="1.0" id="Layer_1" xmlns="http://www.w3.org/2000/svg" xmlns:xlink="http://www.w3.org/1999/xlink" x="0px" y="0px"
	 viewBox="0 0 912 563.8" style="enable-background:new 0 0 912 563.8;" xml:space="preserve">
<style type="text/css">
	.st0{clip-path:url(#SVGID_2_);}
	.st1{fill:#1F1F33;}
	.st2{fill:#4951F5;}
</style>
<g>
	<defs>
		<rect id="SVGID_1_" x="269.9" y="237.9" width="561.1" height="91.8"/>
	</defs>
	<clipPath id="SVGID_2_">
		<use xlink:href="#SVGID_1_"  style="overflow:visible;"/>
	</clipPath>
	<g class="st0">
		<path class="st1" d="M598.6,310.1c-1.9,2.5-4.3,4.5-7.2,5.9c-3.3,1.4-6.8,2.1-10.4,2c-3.1,0.1-6.2-0.6-9.1-1.9
			c-0.4-0.3-0.9-0.7-1.2-1.2c-0.3-0.4-0.6-0.9-0.9-1.4c-0.2-0.5-0.4-1-0.5-1.6c-0.1-0.6-0.1-1.1-0.1-1.7c0-7.8,7.8-11.7,22.8-11.7
			h6.5L598.6,310.1z M603.8,268.5c-5.2-3.2-9.8-5.2-18.2-5.2c-13.7,0-22.1,3.3-26.7,10.4l12.4,5.9c1.9-3.9,6.5-5.2,13.7-5.2l9.8,1.3
			c1.6,1,2.8,2.7,3.3,4.6v7.8h-3.2c-26.7,0-40.4,7.2-40.4,22.1c0,1.3,0.2,2.7,0.5,4c0.3,1.3,0.8,2.6,1.4,3.7
			c0.6,1.2,1.4,2.3,2.2,3.3c0.9,1,1.9,1.9,3,2.7c3.9,3.9,9.8,5.2,16.3,5.2c8.5,0,15-2,20.8-5.9v5.9H611v-41.7
			C611,278.3,608.4,271.7,603.8,268.5z M676.1,237.9h12.4v12.4h-12.4V237.9z M782.2,295.2c0-6.1,1.7-10.9,5.2-14.3
			c3.2-3.4,7.7-5.3,12.4-5.2c2-0.1,4,0.1,5.9,0.6c0.9,0.3,1.9,0.7,2.8,1.1c0.9,0.4,1.7,1,2.5,1.5c1.6,1.2,3,2.6,4.1,4.3
			c0.5,0.8,1,1.7,1.4,2.6c0.4,0.9,0.7,1.9,0.9,2.8l-35.2,7.2V295.2z M802.4,316.7c-4.1,0.1-8.2-1.1-11.7-3.3c-3-2-5.3-5-6.5-8.5
			l46.9-9.1c0.1-6.1-1.2-12.1-3.9-17.6c-2.6-4.7-6.4-8.5-11.1-11.1c-2.5-1.4-5.1-2.4-7.9-3.1c-1.4-0.4-2.8-0.6-4.2-0.8
			c-2.8-0.4-5.7-0.4-8.5,0c-1.4,0.2-2.8,0.4-4.2,0.8c-2.7,0.7-5.4,1.7-7.9,3.1c-4.8,3-8.6,7.3-11.1,12.4c-2.6,4.5-5.2,10.4-5.2,16.9
			s2.6,11.7,5.2,16.9c2.7,4.9,6.8,9,11.7,11.7c5.7,2.7,11.9,4,18.2,3.9c4.9,0.1,9.8-0.8,14.3-2.6c4.1-1.6,7.7-4.3,10.4-7.8l-7.8-9.1
			C814.9,314.3,809.3,316.7,802.4,316.7L802.4,316.7z M732.7,312.8l-18.9-49.5h-14.3l25.4,65.7h15l26.7-65.7h-14.4L732.7,312.8z
			 M676.1,263.3h12.4V329h-12.4V263.3z M650.7,316.7c-3,0-5.2-0.7-6.5-2c-0.9-1-1.7-2.1-2.2-3.3c-0.5-1.2-0.9-2.5-1-3.9v-31.2h16.3
			v-13h-15.7v-12.4h-13v12.4h-9.8v13h9.8v31.2c0,7.4,1.7,12.8,5.2,16.3c3.9,3.9,8.5,5.2,15,5.2c2.6,0.2,5.3,0,7.8-0.6
			c2.2-0.7,4.1-1.8,5.9-3.2l-3.9-11.1C656.3,315.7,653.6,316.7,650.7,316.7L650.7,316.7z M519.9,275.7c3.2,0,6.4,0.9,9.1,2.6
			c2.7,1.5,5,3.8,6.5,6.5l10.4-6.5c-2-4.6-5.5-8.5-9.8-11.1c-4.8-2.6-10.2-4-15.6-3.9c-5.9-0.2-11.7,1.1-16.9,3.9
			c-4.9,2.7-9,6.8-11.7,11.7c-1.5,2.6-2.6,5.3-3.4,8.2c-2.4,8.9-1.2,18.3,3.4,26.3c2.7,4.9,6.8,9,11.7,11.7c2.6,1.4,5.3,2.4,8.2,3.1
			c2.9,0.7,5.8,0.9,8.7,0.8c2.6,0,5.2-0.3,7.7-1c2.5-0.7,5-1.6,7.2-2.9c4.5-2.5,8.1-6.4,10.4-11.1l-10.4-6.5c-1.5,2.7-3.8,5-6.5,6.5
			c-2.8,1.5-5.9,2.2-9.1,2c-4.9,0.1-9.6-1.8-13-5.2c-3.5-3.5-5.2-8.5-5.2-15c0-6.1,1.7-10.9,5.2-14.3c2.5-2.8,5.8-4.7,9.4-5.5
			C517.4,275.8,518.7,275.6,519.9,275.7L519.9,275.7z M462.6,296.5c0,8.5-2.6,11.1-5.2,14.3s-7.2,5.2-12.4,5.2
			c-4.8,0-8.5-1.5-11.1-4.6c-2.6-2.6-3.2-7.2-3.2-12.4v-35.8h-12.4V301c0,9.1,2.4,16.1,7.2,20.8c4.6,5.2,8.5,7.2,16.9,7.2
			c3.8,0.2,7.6-0.5,11.1-2c3.5-1.4,6.6-3.6,9.1-6.5v8.5h13v-65.7h-13V296.5z M389.7,306.9c-1.4,3-3.7,5.4-6.5,7.2
			c-5.8,3.4-13,3.4-18.9,0c-2.8-1.7-5.1-4.2-6.5-7.2c-3.5-6.7-3.5-14.7,0-21.5c1.4-3,3.7-5.4,6.5-7.1c5.8-3.4,13-3.4,18.9,0
			c2.8,1.7,5.1,4.2,6.5,7.1C393.2,292.2,393.2,300.2,389.7,306.9z M392.3,271.8c-2.4-2.9-5.6-5.1-9.1-6.5c-3.5-1.4-7.3-2.1-11.1-2
			c-5.7-0.2-11.3,1.2-16.3,3.9c-2.3,1.4-4.5,3.1-6.4,5.1c-1.9,2-3.5,4.2-4.7,6.6c-2.7,5.5-4,11.5-3.9,17.6
			c-0.1,5.9,1.2,11.7,3.9,16.9c2.5,4.9,6.3,8.9,11.1,11.7c5,2.7,10.6,4.1,16.3,3.9c4,0.2,8-0.5,11.7-2c3.3-1.3,6.5-3.9,7.8-7.2v9.1
			h13v-89.1h-12.4L392.3,271.8z M283.6,295.8v-0.6c0-6.1,1.7-10.9,5.2-14.3c3.4-3.5,8.1-5.3,13-5.2c1,0,1.9,0,2.9,0.2
			c1,0.1,1.9,0.4,2.8,0.6c0.9,0.3,1.8,0.7,2.7,1.1c0.8,0.4,1.7,1,2.4,1.5c0.8,0.6,1.5,1.2,2.1,2c0.7,0.7,1.2,1.5,1.8,2.3
			c0.5,0.8,1,1.7,1.4,2.5c0.4,0.9,0.7,1.8,0.9,2.7L283.6,295.8z M328.5,278.3c-2.6-4.7-6.4-8.5-11.1-11.1c-10-5.4-22.1-5.2-31.9,0.6
			c-4.9,2.7-9,6.8-11.7,11.7c-5.4,10.6-5.4,23.2,0,33.8c2.9,5,7.2,9.1,12.4,11.7c5.5,2.7,11.5,4,17.6,3.9c4.9,0.1,9.8-0.8,14.3-2.6
			c4.1-1.6,7.7-4.3,10.4-7.8l-7.8-9.1c-4.1,4.7-10.1,7.3-16.3,7.2c-4.8,0-8.7-1.1-11.7-3.3c-3.3-1.9-5.8-4.9-7.2-8.5l47.5-9.1
			C333.2,289.7,331.6,283.6,328.5,278.3z"/>
	</g>
</g>
<path class="st2" d="M216.9,253.4H95.3V235c0-0.5,0-0.9,0.1-1.4c0-0.5,0.1-0.9,0.2-1.4c0.1-0.4,0.2-0.9,0.3-1.3
	c0.1-0.4,0.3-0.9,0.5-1.3c0.2-0.4,0.4-0.8,0.6-1.2c0.2-0.4,0.4-0.8,0.7-1.2c0.2-0.4,0.5-0.7,0.8-1.1c0.3-0.4,0.6-0.7,0.9-1
	c0.3-0.3,0.7-0.6,1-0.9c0.3-0.3,0.7-0.6,1.1-0.8s0.8-0.5,1.2-0.7c0.4-0.2,0.8-0.4,1.2-0.6c0.4-0.2,0.8-0.3,1.3-0.5
	c0.4-0.1,0.9-0.3,1.3-0.3c0.4-0.1,0.9-0.1,1.3-0.2s0.9-0.1,1.4-0.1H203c0.4,0,0.9,0,1.4,0.1s0.9,0.1,1.3,0.2
	c0.9,0.2,1.8,0.5,2.6,0.8c0.4,0.2,0.8,0.4,1.2,0.6c0.4,0.2,0.8,0.5,1.2,0.7c0.4,0.2,0.7,0.5,1.1,0.8c0.3,0.3,0.7,0.6,1,0.9
	c0.3,0.3,0.6,0.7,0.9,1c0.3,0.3,0.6,0.7,0.8,1.1c0.2,0.4,0.5,0.8,0.7,1.2s0.4,0.8,0.6,1.2s0.3,0.9,0.5,1.3s0.2,0.9,0.3,1.3
	s0.1,0.9,0.2,1.4s0.1,0.9,0.1,1.4L216.9,253.4z M216.9,328.8c0,0.5,0,0.9-0.1,1.4s-0.1,0.9-0.2,1.4s-0.2,0.9-0.3,1.3
	s-0.3,0.9-0.5,1.3s-0.4,0.8-0.6,1.2s-0.4,0.8-0.7,1.2c-0.2,0.4-0.5,0.7-0.8,1.1c-0.3,0.3-0.6,0.7-0.9,1c-0.3,0.3-0.7,0.6-1,0.9
	c-0.3,0.3-0.7,0.6-1.1,0.8c-0.4,0.2-0.8,0.5-1.2,0.7c-0.4,0.2-0.8,0.4-1.2,0.6c-0.8,0.3-1.7,0.6-2.6,0.8c-0.5,0.1-0.9,0.1-1.4,0.2
	s-0.9,0.1-1.4,0.1h-93.9c-0.5,0-0.9,0-1.4-0.1c-0.5-0.1-0.9-0.1-1.4-0.2c-0.4-0.1-0.9-0.2-1.3-0.3c-0.4-0.1-0.9-0.3-1.3-0.5
	c-0.4-0.2-0.8-0.4-1.2-0.6c-0.4-0.2-0.8-0.5-1.2-0.7c-0.4-0.2-0.7-0.5-1.1-0.8s-0.7-0.6-1-0.9s-0.6-0.7-0.9-1
	c-0.3-0.3-0.6-0.7-0.8-1.1c-0.2-0.4-0.5-0.8-0.7-1.2s-0.4-0.8-0.6-1.2c-0.2-0.4-0.3-0.9-0.5-1.3c-0.1-0.4-0.2-0.9-0.3-1.3
	c-0.1-0.4-0.2-0.9-0.2-1.4c0-0.5-0.1-0.9-0.1-1.4v-61.2h121.6V328.8z M206,206.8h-99.8c-0.8,0-1.7,0-2.5,0.1s-1.6,0.2-2.4,0.4
	c-0.8,0.2-1.6,0.4-2.4,0.6c-0.8,0.2-1.6,0.5-2.3,0.8c-0.8,0.3-1.5,0.7-2.2,1.1c-0.7,0.4-1.4,0.8-2.1,1.3c-0.7,0.5-1.3,1-2,1.5
	c-0.6,0.5-1.3,1.1-1.8,1.7c-1.2,1.2-2.2,2.4-3.1,3.8c-0.5,0.7-0.9,1.4-1.3,2.1c-0.4,0.7-0.7,1.5-1.1,2.2c-0.3,0.8-0.6,1.5-0.8,2.3
	c-0.2,0.8-0.4,1.6-0.6,2.4c-0.2,0.8-0.3,1.6-0.4,2.4c-0.1,0.8-0.1,1.6-0.1,2.5v99.9c0,0.8,0,1.6,0.1,2.5c0.1,0.8,0.2,1.6,0.4,2.4
	c0.2,0.8,0.4,1.6,0.6,2.4c0.2,0.8,0.5,1.6,0.8,2.3c0.3,0.8,0.7,1.5,1.1,2.2c0.4,0.7,0.8,1.4,1.3,2.1c0.9,1.4,2,2.6,3.1,3.8
	c0.6,0.6,1.2,1.1,1.8,1.7c0.7,0.5,1.3,1,2,1.5c0.7,0.5,1.4,0.9,2.1,1.3c0.7,0.4,1.5,0.7,2.2,1.1c0.8,0.3,1.5,0.6,2.3,0.8
	c0.8,0.2,1.6,0.4,2.4,0.6c0.8,0.2,1.6,0.3,2.4,0.4s1.6,0.1,2.5,0.1H206c0.8,0,1.6,0,2.5-0.1s1.6-0.2,2.4-0.4s1.6-0.4,2.4-0.6
	s1.6-0.5,2.3-0.8s1.5-0.7,2.2-1.1c0.7-0.4,1.4-0.8,2.1-1.3c0.7-0.5,1.4-0.9,2-1.5c1.3-1,2.4-2.2,3.5-3.5c0.5-0.6,1-1.3,1.5-2
	c0.5-0.7,0.9-1.4,1.3-2.1s0.7-1.5,1.1-2.2s0.6-1.5,0.8-2.3s0.4-1.6,0.6-2.4s0.3-1.6,0.4-2.4s0.1-1.6,0.1-2.5V232
	c0-0.8,0-1.6-0.1-2.5s-0.2-1.6-0.4-2.4s-0.4-1.6-0.6-2.4s-0.5-1.6-0.8-2.3s-0.7-1.5-1.1-2.2s-0.8-1.4-1.3-2.1
	c-0.5-0.7-0.9-1.4-1.5-2c-1-1.3-2.2-2.4-3.5-3.5c-0.6-0.5-1.3-1-2-1.5c-0.7-0.5-1.4-0.9-2.1-1.3c-0.7-0.4-1.5-0.7-2.2-1.1
	s-1.5-0.6-2.3-0.8s-1.6-0.4-2.4-0.6s-1.6-0.3-2.4-0.4S206.9,206.8,206,206.8z"/>
<path class="st2" d="M107.4,230.5h12.5c0.1,0,0.2,0,0.3,0.1c0.1,0,0.2,0.1,0.3,0.2c0.1,0.1,0.1,0.2,0.2,0.3c0,0.1,0.1,0.2,0.1,0.4
	v12.5c0,0.1,0,0.2-0.1,0.4c0,0.1-0.1,0.2-0.2,0.3c-0.1,0.1-0.2,0.1-0.3,0.2c-0.1,0-0.2,0.1-0.3,0.1h-12.5c-0.1,0-0.2,0-0.4-0.1
	c-0.1,0-0.2-0.1-0.3-0.2c-0.1-0.1-0.2-0.2-0.2-0.3c0-0.1-0.1-0.2-0.1-0.4v-12.5c0-0.1,0-0.2,0.1-0.4c0-0.1,0.1-0.2,0.2-0.3
	c0.1-0.1,0.2-0.2,0.3-0.2C107.2,230.5,107.3,230.5,107.4,230.5z"/>
<path class="st2" d="M129.2,230.5h12.5c0.1,0,0.2,0,0.3,0.1c0.1,0.1,0.2,0.1,0.3,0.2c0.1,0.1,0.1,0.2,0.2,0.3c0,0.1,0.1,0.2,0.1,0.4
	v12.5c0,0.1,0,0.2-0.1,0.4c0,0.1-0.1,0.2-0.2,0.3c-0.1,0.1-0.2,0.1-0.3,0.2c-0.1,0-0.2,0.1-0.3,0.1h-12.5c-0.1,0-0.2,0-0.4-0.1
	c-0.1,0-0.2-0.1-0.3-0.2c-0.1-0.1-0.2-0.2-0.2-0.3c0-0.1-0.1-0.2-0.1-0.4v-12.5c0-0.1,0-0.2,0.1-0.4c0-0.1,0.1-0.2,0.2-0.3
	c0.1-0.1,0.2-0.2,0.3-0.2C129,230.5,129.1,230.5,129.2,230.5z"/>
<path class="st2" d="M151,230.5h12.5c0.1,0,0.2,0,0.3,0.1c0.1,0.1,0.2,0.1,0.3,0.2c0.1,0.1,0.1,0.2,0.2,0.3c0,0.1,0.1,0.2,0.1,0.4
	v12.5c0,0.1,0,0.2-0.1,0.4c0,0.1-0.1,0.2-0.2,0.3c-0.1,0.1-0.2,0.1-0.3,0.2c-0.1,0-0.2,0.1-0.3,0.1H151c-0.1,0-0.2,0-0.3-0.1
	c-0.1,0-0.2-0.1-0.3-0.2c-0.1-0.1-0.2-0.2-0.2-0.3c0-0.1-0.1-0.2-0.1-0.4v-12.5c0-0.1,0-0.2,0.1-0.4c0-0.1,0.1-0.2,0.2-0.3
	c0.1-0.1,0.2-0.2,0.3-0.2C150.8,230.5,150.9,230.5,151,230.5z"/>
<path class="st2" d="M157.3,317.6h40.4c0.2,0,0.3,0,0.5,0.1c0.2,0.1,0.3,0.2,0.4,0.3c0.1,0.1,0.2,0.3,0.3,0.4
	c0.1,0.1,0.1,0.3,0.1,0.5v11.8c0,0.2,0,0.3-0.1,0.5c-0.1,0.2-0.2,0.3-0.3,0.4c-0.1,0.1-0.3,0.2-0.4,0.3c-0.2,0.1-0.3,0.1-0.5,0.1
	h-40.4c-0.2,0-0.3,0-0.5-0.1c-0.2-0.1-0.3-0.2-0.4-0.3c-0.1-0.1-0.2-0.3-0.3-0.4c-0.1-0.1-0.1-0.3-0.1-0.5v-11.8
	c0-0.2,0-0.3,0.1-0.5c0.1-0.1,0.1-0.3,0.3-0.4c0.1-0.1,0.3-0.2,0.4-0.3C157,317.6,157.2,317.6,157.3,317.6z"/>
<path class="st2" d="M121.9,331.1c0,0.1,0.1,0.1,0.2,0.2c0.1,0.1,0.1,0.1,0.2,0.2c0.1,0,0.2,0.1,0.2,0.1c0.1,0,0.2,0,0.3,0
	c0.1,0,0.2,0,0.3,0c0.1,0,0.2-0.1,0.3-0.1c0.1,0,0.2-0.1,0.2-0.2c0.1-0.1,0.1-0.1,0.2-0.2l22.9-25.5c0.1-0.1,0.2-0.2,0.3-0.3
	c0.2-0.2,0.2-0.5,0.2-0.8c0-0.1-0.1-0.3-0.1-0.4l-22.2-25.9c-0.1-0.1-0.2-0.2-0.3-0.3c-0.1-0.1-0.2-0.2-0.4-0.2c-0.1,0-0.3,0-0.4,0
	c-0.1,0-0.3,0.1-0.4,0.1l-7.5,6.4c-0.1,0-0.2,0.1-0.2,0.1c-0.1,0.1-0.1,0.1-0.2,0.2c-0.1,0.1-0.1,0.2-0.2,0.2c0,0.1-0.1,0.2-0.1,0.3
	c0,0.1,0,0.2,0,0.3c0,0.1,0,0.2,0,0.3c0,0.1,0.1,0.2,0.1,0.3c0.1,0.1,0.1,0.2,0.2,0.2l15,17.6c0.1,0.1,0.2,0.2,0.2,0.4
	c0.1,0.3,0.1,0.5,0,0.8c0,0.1-0.1,0.2-0.2,0.4l-16.1,17.6c-0.1,0.1-0.1,0.3-0.1,0.4c0,0.1,0,0.3,0,0.4c0.1,0.3,0.2,0.5,0.5,0.7
	L121.9,331.1z"/>
</svg>
